<mxfile host="app.diagrams.net" modified="2023-09-14T15:02:11.149Z" agent="Mozilla/5.0 (Macintosh; Intel Mac OS X 10_15_7) AppleWebKit/537.36 (KHTML, like Gecko) Chrome/116.0.0.0 Safari/537.36" etag="p3kNmI2X5SCb0GMKTzLW" version="21.7.5" type="github">
  <diagram name="第 1 页" id="WUdKrCbiTIzRzCrQvYiY">
    <mxGraphModel dx="954" dy="610" grid="1" gridSize="10" guides="1" tooltips="1" connect="1" arrows="1" fold="1" page="1" pageScale="1" pageWidth="827" pageHeight="1169" background="#ffffff" math="0" shadow="0">
      <root>
        <mxCell id="0" />
        <mxCell id="1" parent="0" />
        <mxCell id="u-I3SJuwgun1rVwILZSw-4" style="edgeStyle=orthogonalEdgeStyle;rounded=0;orthogonalLoop=1;jettySize=auto;html=1;exitX=1;exitY=0.25;exitDx=0;exitDy=0;" edge="1" parent="1" source="u-I3SJuwgun1rVwILZSw-1">
          <mxGeometry relative="1" as="geometry">
            <mxPoint x="350" y="375" as="targetPoint" />
          </mxGeometry>
        </mxCell>
        <mxCell id="u-I3SJuwgun1rVwILZSw-5" value="&lt;font style=&quot;font-size: 15px;&quot;&gt;&lt;b&gt;注册服务/包括本地注册&lt;/b&gt;&lt;/font&gt;" style="edgeLabel;html=1;align=center;verticalAlign=middle;resizable=0;points=[];" vertex="1" connectable="0" parent="u-I3SJuwgun1rVwILZSw-4">
          <mxGeometry x="-0.0831" y="1" relative="1" as="geometry">
            <mxPoint y="1" as="offset" />
          </mxGeometry>
        </mxCell>
        <mxCell id="u-I3SJuwgun1rVwILZSw-1" value="&lt;b&gt;&lt;font style=&quot;font-size: 18px;&quot;&gt;Provider&lt;/font&gt;&lt;/b&gt;" style="rounded=1;whiteSpace=wrap;html=1;fillColor=#f8cecc;strokeColor=#b85450;" vertex="1" parent="1">
          <mxGeometry x="40" y="360" width="120" height="60" as="geometry" />
        </mxCell>
        <mxCell id="u-I3SJuwgun1rVwILZSw-15" style="edgeStyle=orthogonalEdgeStyle;rounded=0;orthogonalLoop=1;jettySize=auto;html=1;exitX=0.25;exitY=1;exitDx=0;exitDy=0;entryX=1;entryY=0.5;entryDx=0;entryDy=0;entryPerimeter=0;" edge="1" parent="1" source="u-I3SJuwgun1rVwILZSw-2" target="u-I3SJuwgun1rVwILZSw-13">
          <mxGeometry relative="1" as="geometry" />
        </mxCell>
        <mxCell id="u-I3SJuwgun1rVwILZSw-16" value="&lt;b&gt;&lt;font style=&quot;font-size: 15px;&quot;&gt;拉取服务，写入底层对应的类代理器&lt;/font&gt;&lt;/b&gt;" style="edgeLabel;html=1;align=center;verticalAlign=middle;resizable=0;points=[];" vertex="1" connectable="0" parent="u-I3SJuwgun1rVwILZSw-15">
          <mxGeometry x="0.1714" y="-3" relative="1" as="geometry">
            <mxPoint as="offset" />
          </mxGeometry>
        </mxCell>
        <mxCell id="u-I3SJuwgun1rVwILZSw-2" value="&lt;b&gt;&lt;font style=&quot;font-size: 16px;&quot;&gt;Consumer&lt;/font&gt;&lt;/b&gt;" style="rounded=1;whiteSpace=wrap;html=1;fillColor=#d5e8d4;strokeColor=#82b366;" vertex="1" parent="1">
          <mxGeometry x="680" y="360" width="120" height="60" as="geometry" />
        </mxCell>
        <mxCell id="u-I3SJuwgun1rVwILZSw-6" style="edgeStyle=orthogonalEdgeStyle;rounded=0;orthogonalLoop=1;jettySize=auto;html=1;exitX=0;exitY=0;exitDx=0;exitDy=90;exitPerimeter=0;" edge="1" parent="1" source="u-I3SJuwgun1rVwILZSw-3">
          <mxGeometry relative="1" as="geometry">
            <mxPoint x="170" y="405" as="targetPoint" />
          </mxGeometry>
        </mxCell>
        <mxCell id="u-I3SJuwgun1rVwILZSw-7" value="&lt;b&gt;&lt;font style=&quot;font-size: 16px;&quot;&gt;返回结果&lt;/font&gt;&lt;/b&gt;" style="edgeLabel;html=1;align=center;verticalAlign=middle;resizable=0;points=[];" vertex="1" connectable="0" parent="u-I3SJuwgun1rVwILZSw-6">
          <mxGeometry x="0.134" y="-2" relative="1" as="geometry">
            <mxPoint as="offset" />
          </mxGeometry>
        </mxCell>
        <mxCell id="u-I3SJuwgun1rVwILZSw-8" style="edgeStyle=orthogonalEdgeStyle;rounded=0;orthogonalLoop=1;jettySize=auto;html=1;exitX=1;exitY=0.5;exitDx=0;exitDy=0;exitPerimeter=0;entryX=0;entryY=0.25;entryDx=0;entryDy=0;" edge="1" parent="1" source="u-I3SJuwgun1rVwILZSw-3" target="u-I3SJuwgun1rVwILZSw-2">
          <mxGeometry relative="1" as="geometry">
            <mxPoint x="580" y="380" as="targetPoint" />
          </mxGeometry>
        </mxCell>
        <mxCell id="u-I3SJuwgun1rVwILZSw-11" value="&lt;b&gt;&lt;font style=&quot;font-size: 16px;&quot;&gt;负载均衡、服务容错&lt;/font&gt;&lt;/b&gt;" style="edgeLabel;html=1;align=center;verticalAlign=middle;resizable=0;points=[];" vertex="1" connectable="0" parent="u-I3SJuwgun1rVwILZSw-8">
          <mxGeometry x="0.1024" y="1" relative="1" as="geometry">
            <mxPoint as="offset" />
          </mxGeometry>
        </mxCell>
        <mxCell id="u-I3SJuwgun1rVwILZSw-3" value="&lt;font style=&quot;font-size: 18px;&quot;&gt;&lt;b&gt;注册中心&lt;/b&gt;&lt;/font&gt;" style="shape=cylinder3;whiteSpace=wrap;html=1;boundedLbl=1;backgroundOutline=1;size=15;fillColor=#fff2cc;strokeColor=#d6b656;" vertex="1" parent="1">
          <mxGeometry x="360" y="315" width="120" height="130" as="geometry" />
        </mxCell>
        <mxCell id="u-I3SJuwgun1rVwILZSw-13" value="&lt;b&gt;&lt;font style=&quot;font-size: 17px;&quot;&gt;服务器--处理逻辑&lt;br&gt;返回结果-&lt;br&gt;&lt;/font&gt;&lt;/b&gt;" style="shape=cylinder3;whiteSpace=wrap;html=1;boundedLbl=1;backgroundOutline=1;size=15;fillColor=#dae8fc;strokeColor=#6c8ebf;" vertex="1" parent="1">
          <mxGeometry x="320" y="500" width="160" height="80" as="geometry" />
        </mxCell>
        <mxCell id="u-I3SJuwgun1rVwILZSw-18" style="edgeStyle=orthogonalEdgeStyle;rounded=0;orthogonalLoop=1;jettySize=auto;html=1;exitX=0.75;exitY=1;exitDx=0;exitDy=0;entryX=0.145;entryY=0;entryDx=0;entryDy=4.35;entryPerimeter=0;" edge="1" parent="1" source="u-I3SJuwgun1rVwILZSw-17" target="u-I3SJuwgun1rVwILZSw-3">
          <mxGeometry relative="1" as="geometry" />
        </mxCell>
        <mxCell id="u-I3SJuwgun1rVwILZSw-21" style="edgeStyle=orthogonalEdgeStyle;rounded=0;orthogonalLoop=1;jettySize=auto;html=1;exitX=0;exitY=0.5;exitDx=0;exitDy=0;entryX=0.5;entryY=0;entryDx=0;entryDy=0;" edge="1" parent="1" source="u-I3SJuwgun1rVwILZSw-17" target="u-I3SJuwgun1rVwILZSw-20">
          <mxGeometry relative="1" as="geometry" />
        </mxCell>
        <mxCell id="u-I3SJuwgun1rVwILZSw-17" value="&lt;b&gt;&lt;font style=&quot;font-size: 18px;&quot;&gt;api接口-调用的接口、url&lt;br&gt;invocation类&lt;br&gt;&lt;/font&gt;&lt;/b&gt;" style="rounded=1;whiteSpace=wrap;html=1;fillColor=#ffe6cc;strokeColor=#d79b00;" vertex="1" parent="1">
          <mxGeometry x="230" y="120" width="180" height="90" as="geometry" />
        </mxCell>
        <mxCell id="u-I3SJuwgun1rVwILZSw-22" style="edgeStyle=orthogonalEdgeStyle;rounded=0;orthogonalLoop=1;jettySize=auto;html=1;exitX=0.5;exitY=1;exitDx=0;exitDy=0;entryX=0.558;entryY=-0.025;entryDx=0;entryDy=0;entryPerimeter=0;" edge="1" parent="1" source="u-I3SJuwgun1rVwILZSw-20" target="u-I3SJuwgun1rVwILZSw-1">
          <mxGeometry relative="1" as="geometry" />
        </mxCell>
        <mxCell id="u-I3SJuwgun1rVwILZSw-20" value="&lt;b&gt;&lt;font style=&quot;font-size: 15px;&quot;&gt;api对应的具体实现类&lt;/font&gt;&lt;/b&gt;" style="rounded=1;whiteSpace=wrap;html=1;fillColor=#e1d5e7;strokeColor=#9673a6;" vertex="1" parent="1">
          <mxGeometry x="80" y="230" width="120" height="60" as="geometry" />
        </mxCell>
      </root>
    </mxGraphModel>
  </diagram>
</mxfile>
